<svg height="512" viewBox="0 0 128 128" width="512" xmlns="http://www.w3.org/2000/svg"><g><g><path d="m9.75 99.751h108.5a8 8 0 0 1 8 8v13.5a0 0 0 0 1 0 0h-124.5a0 0 0 0 1 0 0v-13.5a8 8 0 0 1 8-8z" fill="#64666d"/><path d="m95.627 86.858h8.75a4 4 0 0 1 4 4v8.893a0 0 0 0 1 0 0h-16.75a0 0 0 0 1 0 0v-8.893a4 4 0 0 1 4-4z" fill="#f9d84e"/><path d="m70.5 86.858h8.75a4 4 0 0 1 4 4v8.893a0 0 0 0 1 0 0h-16.75a0 0 0 0 1 0 0v-8.893a4 4 0 0 1 4-4z" fill="#45cae0"/><circle cx="43.875" cy="31" fill="#ff648d" r="24.251"/><path d="m60.126 32.75a1.75 1.75 0 0 1 -1.75-1.75 14.518 14.518 0 0 0 -14.5-14.5 1.75 1.75 0 1 1 0-3.5 18.021 18.021 0 0 1 18 18 1.749 1.749 0 0 1 -1.75 1.75z" fill="#fd387e"/><path d="m43.875 55.251a24.4 24.4 0 0 1 -4.875-.49v44.99h9.752v-44.99a24.407 24.407 0 0 1 -4.877.49z" fill="#e9e9ea"/><path d="m31.844 110.501h64.312v10.75h-64.312z" fill="#4b4d54"/></g><g><path d="m118.25 98h-8.123v-5.75a1.75 1.75 0 0 0 -3.5 0v5.75h-13.25v-7.142a2.253 2.253 0 0 1 2.25-2.25h4.373a1.75 1.75 0 1 0 0-3.5h-4.373a5.757 5.757 0 0 0 -5.75 5.75v7.142h-4.877v-7.142a5.757 5.757 0 0 0 -5.75-5.75h-8.75a5.757 5.757 0 0 0 -5.75 5.75v7.142h-14.25v-41.858a26 26 0 1 0 -13.251 0v12.733a1.75 1.75 0 0 0 3.5 0v-12.06a27.113 27.113 0 0 0 6.251 0v41.185h-6.251v-3.625a1.75 1.75 0 0 0 -3.5 0v3.625h-27.499a9.761 9.761 0 0 0 -9.75 9.751v13.5a1.75 1.75 0 0 0 1.75 1.749h124.5a1.749 1.749 0 0 0 1.75-1.75v-13.5a9.761 9.761 0 0 0 -9.75-9.75zm-96.877-67a22.5 22.5 0 1 1 25.4 22.308 22.94 22.94 0 0 1 -5.958-.021 22.53 22.53 0 0 1 -19.442-22.287zm46.879 59.858a2.253 2.253 0 0 1 2.25-2.25h8.75a2.253 2.253 0 0 1 2.25 2.25v7.142h-13.25zm-34.658 28.642v-7.25h60.812v7.25zm90.906 0h-26.594v-9a1.749 1.749 0 0 0 -1.75-1.75h-64.312a1.749 1.749 0 0 0 -1.75 1.75v9h-26.594v-11.75a6.257 6.257 0 0 1 6.25-6.25h108.5a6.257 6.257 0 0 1 6.25 6.25z"/><path d="m43.875 16.5a14.518 14.518 0 0 1 14.501 14.5 1.75 1.75 0 1 0 3.5 0 18.021 18.021 0 0 0 -18-18 1.75 1.75 0 1 0 0 3.5z"/><path d="m39 85.125a1.75 1.75 0 0 0 1.75-1.75v-3.5a1.75 1.75 0 0 0 -3.5 0v3.5a1.75 1.75 0 0 0 1.75 1.75z"/></g></g></svg>